<svg xmlns="http://www.w3.org/2000/svg" width="128" height="128" viewBox="0 0 128 128">
  <title>GLASSES</title>
  <g>
    <g>
      <path d="M118.574,65.619l.03.019-.512-.733C118.261,65.138,118.415,65.38,118.574,65.619Z" fill="#477b9e"/>
      <path d="M85.616,39.452,87.37,37.9a4,4,0,0,1,6.085.94L104.205,56.8h0c1.377.282,2.661.614,3.837.97a19.391,19.391,0,0,1,9.926,6.957l-20.5-29.3A10,10,0,0,0,84.3,32.484L78.656,35.72l.427,1.708A4,4,0,0,0,85.616,39.452Z" fill="#477b9e"/>
    </g>
    <path d="M73.006,63.541A12.926,12.926,0,0,0,64,59.388a12.93,12.93,0,0,0-9.007,4.153h0A12.21,12.21,0,0,1,58.03,69.48s2.086-3.842,5.97-3.842,5.968,3.842,5.968,3.842h0a12.211,12.211,0,0,1,3.037-5.937Z" fill="#f4dd45"/>
    <g>
      <path d="M19.956,57.774c1.176-.356,2.46-.688,3.837-.97h0l10.75-17.965a4,4,0,0,1,6.084-.94l1.755,1.554a4,4,0,0,0,6.533-2.024l.427-1.708L43.7,32.484a10,10,0,0,0-13.165,2.945l-20.5,29.3A19.391,19.391,0,0,1,19.956,57.774Z" fill="#477b9e"/>
      <path d="M9.908,64.905l-.512.733.03-.019C9.585,65.38,9.739,65.138,9.908,64.905Z" fill="#477b9e"/>
    </g>
    <path d="M6.724,79.658A18.889,18.889,0,0,1,19.956,57.774a42.442,42.442,0,0,1,27.116.81c23.478,8.559,5.5,35.28-12.259,37.864C18.268,98.856,8.926,89.775,6.724,79.658Z" fill="#dbedff"/>
    <path d="M121.276,79.658a18.889,18.889,0,0,0-13.232-21.884,42.442,42.442,0,0,0-27.116.81c-23.479,8.559-5.5,35.28,12.258,37.864C109.732,98.856,119.073,89.775,121.276,79.658Z" fill="#dbedff"/>
    <path d="M105.325,89.252a1.75,1.75,0,0,1-.607-3.392,10.782,10.782,0,0,0,6.955-8.045,1.75,1.75,0,0,1,3.42.745,14.321,14.321,0,0,1-9.16,10.584A1.754,1.754,0,0,1,105.325,89.252Z" fill="#b5dcff"/>
  </g>
</svg>
